<svg width="51" height="51" viewBox="0 0 51 51" fill="none" xmlns="http://www.w3.org/2000/svg">
<g id="Group 33692">
<g id="vuesax/bold/wallet">
<g id="vuesax/bold/wallet_2">
<g id="wallet">
<path id="Vector" d="M24.94 16.2101L22.53 21.8201H20.12C19.72 21.8201 19.33 21.8501 18.95 21.9301L19.95 19.5301L19.99 19.4401L20.05 19.2801C20.08 19.2101 20.1 19.1501 20.13 19.1001C21.29 16.4101 22.59 15.5701 24.94 16.2101Z" fill="#292D32"/>
<path id="Vector_2" d="M31.7301 22.09L31.7101 22.08C31.1101 21.91 30.5001 21.82 29.8801 21.82H23.6201L25.8701 16.59L25.9001 16.52C26.0401 16.57 26.1901 16.64 26.3401 16.69L28.5501 17.62C29.7801 18.13 30.6401 18.66 31.1701 19.3C31.2601 19.42 31.3401 19.53 31.4201 19.66C31.5101 19.8 31.5801 19.94 31.6201 20.09C31.6601 20.18 31.6901 20.26 31.7101 20.35C31.8601 20.86 31.8701 21.44 31.7301 22.09Z" fill="#292D32"/>
<path id="Vector_3" d="M25.52 31.6601H25.77C26.07 31.6601 26.32 31.3901 26.32 31.0601C26.32 30.6401 26.2 30.5801 25.94 30.4801L25.52 30.3301V31.6601Z" fill="#292D32"/>
<path id="Vector_4" d="M31.29 23.5201C30.84 23.3901 30.37 23.3201 29.88 23.3201H20.12C19.44 23.3201 18.8 23.4501 18.2 23.7101C16.46 24.4601 15.24 26.1901 15.24 28.2001V30.1501C15.24 30.3901 15.26 30.6201 15.29 30.8601C15.51 34.0401 17.21 35.7401 20.39 35.9501C20.62 35.9801 20.85 36.0001 21.1 36.0001H28.9C32.6 36.0001 34.55 34.2401 34.74 30.7401C34.75 30.5501 34.76 30.3501 34.76 30.1501V28.2001C34.76 25.9901 33.29 24.1301 31.29 23.5201ZM26.28 29.5001C26.74 29.6601 27.36 30.0001 27.36 31.0601C27.36 31.9701 26.65 32.7001 25.77 32.7001H25.52V32.9201C25.52 33.2101 25.29 33.4401 25 33.4401C24.71 33.4401 24.48 33.2101 24.48 32.9201V32.7001H24.39C23.43 32.7001 22.64 31.8901 22.64 30.8901C22.64 30.6001 22.87 30.3701 23.16 30.3701C23.45 30.3701 23.68 30.6001 23.68 30.8901C23.68 31.3101 24 31.6601 24.39 31.6601H24.48V29.9701L23.72 29.7001C23.26 29.5401 22.64 29.2001 22.64 28.1401C22.64 27.2301 23.35 26.5001 24.23 26.5001H24.48V26.2801C24.48 25.9901 24.71 25.7601 25 25.7601C25.29 25.7601 25.52 25.9901 25.52 26.2801V26.5001H25.61C26.57 26.5001 27.36 27.3101 27.36 28.3101C27.36 28.6001 27.13 28.8301 26.84 28.8301C26.55 28.8301 26.32 28.6001 26.32 28.3101C26.32 27.8901 26 27.5401 25.61 27.5401H25.52V29.2301L26.28 29.5001Z" fill="#292D32"/>
<path id="Vector_5" d="M23.6799 28.14C23.6799 28.56 23.7999 28.62 24.0599 28.72L24.4799 28.87V27.54H24.2299C23.9199 27.54 23.6799 27.81 23.6799 28.14Z" fill="#292D32"/>
</g>
</g>
</g>
<circle id="Ellipse 70" cx="25.5" cy="25.5" r="25.2" stroke="#E7E7E7" stroke-width="0.6"/>
</g>
</svg>
