<svg width="51" height="51" viewBox="0 0 51 51" fill="none" xmlns="http://www.w3.org/2000/svg">
<circle cx="25.5" cy="25.5" r="25.2" stroke="#E7E7E7" stroke-width="0.6"/>
<path d="M30.19 16H21.81C18.17 16 16 18.17 16 21.81V30.18C16 33.83 18.17 36 21.81 36H30.18C33.82 36 35.99 33.83 35.99 30.19V21.81C36 18.17 33.83 16 30.19 16ZM23.11 30.9C23.11 31.18 22.89 31.4 22.61 31.4H19.82C19.54 31.4 19.32 31.18 19.32 30.9V26.28C19.32 25.65 19.83 25.14 20.46 25.14H22.61C22.89 25.14 23.11 25.36 23.11 25.64V30.9ZM27.89 30.9C27.89 31.18 27.67 31.4 27.39 31.4H24.6C24.32 31.4 24.1 31.18 24.1 30.9V21.74C24.1 21.11 24.61 20.6 25.24 20.6H26.76C27.39 20.6 27.9 21.11 27.9 21.74V30.9H27.89ZM32.68 30.9C32.68 31.18 32.46 31.4 32.18 31.4H29.39C29.11 31.4 28.89 31.18 28.89 30.9V27.35C28.89 27.07 29.11 26.85 29.39 26.85H31.54C32.17 26.85 32.68 27.36 32.68 27.99V30.9Z" fill="#292D32"/>
</svg>
