<svg width="51" height="51" viewBox="0 0 51 51" fill="none" xmlns="http://www.w3.org/2000/svg">
<circle cx="25.5" cy="25.5" r="25.2" stroke="#E7E7E7" stroke-width="0.6"/>
<path d="M25 16C19.49 16 15 20.49 15 26C15 31.51 19.49 36 25 36C30.51 36 35 31.51 35 26C35 20.49 30.51 16 25 16ZM29 26.75H25.75V30C25.75 30.41 25.41 30.75 25 30.75C24.59 30.75 24.25 30.41 24.25 30V26.75H21C20.59 26.75 20.25 26.41 20.25 26C20.25 25.59 20.59 25.25 21 25.25H24.25V22C24.25 21.59 24.59 21.25 25 21.25C25.41 21.25 25.75 21.59 25.75 22V25.25H29C29.41 25.25 29.75 25.59 29.75 26C29.75 26.41 29.41 26.75 29 26.75Z" fill="#292D32"/>
</svg>
