<svg width="51" height="51" xmlns="http://www.w3.org/2000/svg" fill="none">
 <g>
  <title>Layer 1</title>
  <circle cx="25.5" cy="25.5" r="25.2" stroke="#E7E7E7" stroke-width="0.6" id="svg_1"/>
  <g fill="#9031DB" id="svg_2">
   <path id="svg_3" d="m36.9646,24.58c-0.4423,-5.60846 -4.9361,-10.10231 -10.5446,-10.54461c-0.3008,-0.0177 -0.6192,-0.03539 -0.92,-0.03539c-6.35154,0 -11.5,5.14846 -11.5,11.5c0,6.3515 5.14846,11.5 11.5,11.5c6.3515,0 11.5,-5.1485 11.5,-11.5c0,-0.3008 -0.0177,-0.6192 -0.0354,-0.92zm-9.9077,2.4769l-1.5569,2.8662l-1.55692,-2.8662l-2.86616,-1.5569l2.86616,-1.55692l1.55692,-2.86616l1.5569,2.86616l2.8662,1.55692l-2.8662,1.5569z" fill="#292d32"/>
  </g>
 </g>

</svg>