<svg width="51" height="51" viewBox="0 0 51 51" fill="none" xmlns="http://www.w3.org/2000/svg">
<circle cx="25.5" cy="25.5" r="25.2" stroke="#E7E7E7" stroke-width="0.6"/>
<path d="M26.25 26.5799V28.5599C26.25 29.2499 25.69 29.8099 25 29.8099C24.31 29.8099 23.75 29.2499 23.75 28.5599V26.5799C23.39 26.3599 23.11 26.0399 22.91 25.6599H16C15.45 25.6599 15 26.1099 15 26.6599V30.1899C15 33.3999 17.6 35.9999 20.81 35.9999H29.18C32.4 35.9999 35 33.3999 35 30.1899V26.6599C35 26.1099 34.55 25.6599 34 25.6599H27.09C26.89 26.0399 26.61 26.3599 26.25 26.5799Z" fill="#292D32"/>
<path d="M29.19 16H20.81C17.6 16 15 18.6 15 21.81V23.16C15 23.71 15.45 24.16 16 24.16H22.67C22.9 22.84 24.21 21.9 25.64 22.28C26.44 22.49 27.09 23.14 27.3 23.94C27.32 24.01 27.32 24.09 27.33 24.16H34C34.55 24.16 35 23.71 35 23.16V21.81C35 18.6 32.4 16 29.19 16Z" fill="#292D32"/>
</svg>
