<svg width="28" height="28" viewBox="0 0 28 28" fill="none" xmlns="http://www.w3.org/2000/svg">
<path opacity="0.3" d="M8.16663 4.66667H5.83329C5.18896 4.66667 4.66663 5.189 4.66663 5.83333V8.16667C4.66663 8.811 5.18896 9.33333 5.83329 9.33333H8.16663C8.81096 9.33333 9.33329 8.811 9.33329 8.16667V5.83333C9.33329 5.189 8.81096 4.66667 8.16663 4.66667Z" fill="#B0B7C3"/>
<path fill-rule="evenodd" clip-rule="evenodd" d="M5.83329 11.6667H8.16663C8.81096 11.6667 9.33329 12.189 9.33329 12.8333V15.1667C9.33329 15.811 8.81096 16.3333 8.16663 16.3333H5.83329C5.18896 16.3333 4.66663 15.811 4.66663 15.1667V12.8333C4.66663 12.189 5.18896 11.6667 5.83329 11.6667ZM12.8333 4.66667H15.1666C15.811 4.66667 16.3333 5.189 16.3333 5.83333V8.16667C16.3333 8.811 15.811 9.33333 15.1666 9.33333H12.8333C12.189 9.33333 11.6666 8.811 11.6666 8.16667V5.83333C11.6666 5.189 12.189 4.66667 12.8333 4.66667ZM12.8333 11.6667H15.1666C15.811 11.6667 16.3333 12.189 16.3333 12.8333V15.1667C16.3333 15.811 15.811 16.3333 15.1666 16.3333H12.8333C12.189 16.3333 11.6666 15.811 11.6666 15.1667V12.8333C11.6666 12.189 12.189 11.6667 12.8333 11.6667ZM19.8333 4.66667H22.1666C22.811 4.66667 23.3333 5.189 23.3333 5.83333V8.16667C23.3333 8.811 22.811 9.33333 22.1666 9.33333H19.8333C19.189 9.33333 18.6666 8.811 18.6666 8.16667V5.83333C18.6666 5.189 19.189 4.66667 19.8333 4.66667ZM19.8333 11.6667H22.1666C22.811 11.6667 23.3333 12.189 23.3333 12.8333V15.1667C23.3333 15.811 22.811 16.3333 22.1666 16.3333H19.8333C19.189 16.3333 18.6666 15.811 18.6666 15.1667V12.8333C18.6666 12.189 19.189 11.6667 19.8333 11.6667ZM5.83329 18.6667H8.16663C8.81096 18.6667 9.33329 19.189 9.33329 19.8333V22.1667C9.33329 22.811 8.81096 23.3333 8.16663 23.3333H5.83329C5.18896 23.3333 4.66663 22.811 4.66663 22.1667V19.8333C4.66663 19.189 5.18896 18.6667 5.83329 18.6667ZM12.8333 18.6667H15.1666C15.811 18.6667 16.3333 19.189 16.3333 19.8333V22.1667C16.3333 22.811 15.811 23.3333 15.1666 23.3333H12.8333C12.189 23.3333 11.6666 22.811 11.6666 22.1667V19.8333C11.6666 19.189 12.189 18.6667 12.8333 18.6667ZM19.8333 18.6667H22.1666C22.811 18.6667 23.3333 19.189 23.3333 19.8333V22.1667C23.3333 22.811 22.811 23.3333 22.1666 23.3333H19.8333C19.189 23.3333 18.6666 22.811 18.6666 22.1667V19.8333C18.6666 19.189 19.189 18.6667 19.8333 18.6667Z" fill="#B0B7C3"/>
</svg>
